<svg width="341" height="87" viewBox="0 0 341 87" fill="none" xmlns="http://www.w3.org/2000/svg">
<path d="M13.7 23.3V27C13.7 33.8 18.1 39.1 25 39.1C31.8 39.1 36.3 33.8 36.3 27V23.3C36.3 16.4 31.8 11.2 25 11.2C18.1 11.2 13.7 16.4 13.7 23.3ZM0.6 27V23.3C0.6 9.8 10.8 -9.53674e-07 25 -9.53674e-07C39.2 -9.53674e-07 49.4 9.8 49.4 23.3V27C49.4 40.4 39.2 50.3 25 50.3C10.8 50.3 0.6 40.4 0.6 27ZM79 73.8V85.9H5.7V57.5H19V73.8H79ZM77.6 -9.53674e-07V64H64.4V-9.53674e-07H77.6ZM96.4391 83.8L84.2391 78C97.0391 55 101.039 28.2 101.039 0.899999H114.339C114.339 10.4 113.839 20.2 112.639 30C117.039 46.2 126.239 63.2 138.139 74.6L128.139 83.1C120.039 75.1 113.239 64.3 108.339 53.2C105.539 64 101.639 74.4 96.4391 83.8ZM161.839 45.2V86.4H148.539V-9.53674e-07H161.839V32.5H173.039V45.2H161.839ZM249.678 -9.53674e-07V86.4H236.478V-9.53674e-07H249.678ZM186.778 26.8V57.3C186.778 67 190.678 71.5 197.678 71.5C204.778 71.5 208.678 67 208.678 57.3V26.8C208.678 17.2 204.778 12.6 197.678 12.6C190.678 12.6 186.778 17.2 186.778 26.8ZM174.078 57.3V26.8C174.078 9.7 183.478 0.399994 197.678 0.399994C212.078 0.399994 221.478 9.7 221.478 26.8V57.3C221.478 74.3 212.078 83.5 197.678 83.5C183.478 83.5 174.078 74.3 174.078 57.3ZM275.217 13V23.8H336.217V35.2H275.217V46.7H337.117V58.3H261.917V1.4H336.217V13H275.217ZM340.417 71V83.1H257.717V71H340.417Z" fill="#1E1F24"/>
</svg>
