<svg width="170" height="92" viewBox="0 0 170 92" fill="none" xmlns="http://www.w3.org/2000/svg">
<path d="M65.4 68.5V4H78.6V68.5H65.4ZM6.7 89.9V62.9H20V77.8H80.5V89.9H6.7ZM35.9 20.9C35.6 23.4 35.1 25.8 34.5 28.2C40.1 36 49.8 43.4 58.9 47.1L51.6 57C43.9 53.4 35.4 46.9 29.2 40.2C24.3 48.4 17.2 55.2 9.2 58.9L0.1 50C12.7 44.1 21.1 32.9 22.8 20.9H3.9V9.6H22.5V0.699994H35.9V9.6H54.7V20.9H35.9ZM165.139 50.5H151.839V17.6H90.8391V5.4H165.139V50.5ZM169.339 56.1V68.4H135.039V91.3H120.939V68.4H86.6391V56.1H169.339Z" fill="#1E1F24"/>
</svg>
