<svg width="165" height="91" viewBox="0 0 165 91" fill="none" xmlns="http://www.w3.org/2000/svg">
<path d="M35.8 20.9C35.5 22.7 35.1 24.4 34.5 26.2C40 33.2 49.5 39.2 58.5 42.4L51.5 52.5C43.8 49.5 35.1 43.9 29 37.7C24 45.2 16.9 51.3 9 54.6L0.1 45.6C12 40.6 20.2 31.8 22.5 20.9H3.9V9.6H22.5V0.699994H35.9V9.6H54.2V20.9H35.8ZM63.5 54.7V4H76.8V22.9H88V35.5H76.8V54.7H63.5ZM5.8 89.9V57.8H76.8V89.9H5.8ZM63.5 78.9V68.8H19V78.9H63.5ZM89.0391 61.3V30.8C89.0391 14.1 97.9391 4.39999 112.039 4.39999C126.139 4.39999 135.039 14.1 135.039 30.8V61.3C135.039 77.8 126.139 87.5 112.039 87.5C97.9391 87.5 89.0391 77.8 89.0391 61.3ZM101.739 30.8V61.3C101.739 70.8 105.439 75.5 112.039 75.5C118.639 75.5 122.239 70.8 122.239 61.3V30.8C122.239 21.3 118.639 16.6 112.039 16.6C105.439 16.6 101.739 21.3 101.739 30.8ZM151.439 64.4H138.039V51.8H151.439V36.3H138.039V23.7H151.439V4H164.639V90.4H151.439V64.4Z" fill="#1E1F24"/>
</svg>
