<svg width="170" height="87" viewBox="0 0 170 87" fill="none" xmlns="http://www.w3.org/2000/svg">
<path d="M79.1 0.399999V42.2H4.8V0.399999H79.1ZM18.1 30.1H65.8V12.5H18.1V30.1ZM83.3 52.5V64.8H65.6V86.3H52.3V64.8H31.6V86.3H18.4V64.8H0.6V52.5H83.3ZM169.339 69.9V82.1H86.6391V69.9H169.339ZM93.8391 52.8L87.1391 42.3C103.339 37.4 116.539 27.3 121.739 12.6H90.8391V0.399999H165.139V12.6H136.039C135.339 15.4 134.339 18.1 133.139 20.7C141.839 30.1 154.739 36.6 168.939 39.8L163.039 50.8C149.239 47.5 135.939 40.6 126.439 31.5C118.139 41.8 106.339 49.2 93.8391 52.8Z" fill="#1E1F24"/>
</svg>
