<svg width="167" height="92" viewBox="0 0 167 92" fill="none" xmlns="http://www.w3.org/2000/svg">
<path d="M0.6 53.8V43H35V34.9H4.8V5.4H79.1V15.9H18.1V24.4H79.6V34.9H48.3V43H83.3V53.8H0.6ZM26 59H58C72.1 59 80 65.1 80 75.2C80 85.7 72.1 91.3 58 91.3H26C11.9 91.3 3.9 85.7 3.9 75.2C3.9 65.1 11.9 59 26 59ZM57.3 69.5H26.6C20.7 69.5 17.5 71.6 17.5 75.2C17.5 78.6 20.3 80.8 26.6 80.8H57.3C63.7 80.8 66.4 78.6 66.4 75.2C66.4 71.6 63.7 69.5 57.3 69.5ZM164.639 4V56.1H152.039V35.2H144.539V56.1H132.239V4.39999H144.539V23.6H152.039V4H164.639ZM129.439 7.7V18.5H87.6391V7.7H101.939V0.699994H114.939V7.7H129.439ZM128.039 38.6C128.039 49.1 119.739 55.8 108.739 55.8C97.6391 55.8 89.4391 49.1 89.4391 38.6C89.4391 28 97.6391 21.3 108.739 21.3C119.739 21.3 128.039 28 128.039 38.6ZM115.839 38.6C115.839 34.5 113.039 31.4 108.739 31.4C104.439 31.4 101.639 34.5 101.639 38.6C101.639 42.6 104.439 45.6 108.739 45.6C113.039 45.6 115.839 42.6 115.839 38.6ZM145.239 91.3H112.239C99.2391 91.3 91.3391 85.8 91.3391 75.4C91.3391 65.8 99.2391 59.4 112.239 59.4H145.239C158.139 59.4 166.039 65.8 166.039 75.4C166.039 85.8 158.139 91.3 145.239 91.3ZM112.239 80.4H142.739C148.739 80.4 152.439 79.3 152.439 75.4C152.439 71.5 148.739 70.3 142.739 70.3H114.639C108.439 70.3 104.939 71.5 104.939 75.4C104.939 78.4 107.639 80.4 112.239 80.4Z" fill="#1E1F24"/>
</svg>
