<svg width="261" height="87" viewBox="0 0 261 87" fill="none" xmlns="http://www.w3.org/2000/svg">
<path d="M18.1 38H80V50.3H4.8V1.4H79.1V13.6H18.1V38ZM83.3 70.9V83.1H0.6V70.9H83.3ZM139.339 70.6V82.6H89.9391V34.7H120.639V13.5H89.9391V1.4H133.939V46.8H103.239V70.6H139.339ZM162.839 45.2V86.4H149.539V-9.53674e-07H162.839V32.5H174.039V45.2H162.839ZM220.478 1.4V82.6H175.978V1.4H220.478ZM248.878 45.2V86.4H235.578V-9.53674e-07H248.878V32.5H260.078V45.2H248.878ZM188.778 70.6H207.678V13.5H188.778V70.6Z" fill="#1E1F24"/>
</svg>
