<svg width="175" height="87" viewBox="0 0 175 87" fill="none" xmlns="http://www.w3.org/2000/svg">
<path d="M3.9 1.4H41V13.5H28.3C28.2 20.3 27.9 26.8 27.2 33C31 47.8 37.4 63 46.3 75.4C42.7 77.5 39.2 79.8 35.6 81.8C30.7 74.4 26.4 65.5 23 56.5C20.5 66.1 16.8 75.1 12 83.8L0.1 79.3C11.3 59.1 15.4 39.7 15.7 13.5H3.9V1.4ZM78.6 86.4H65.9V-9.53674e-07H78.6V86.4ZM59.3 0.399994V85.4H46.8V43.2H34.9V31.1H46.8V0.399994H59.3ZM164.639 73.8V85.9H91.8391V57.5H105.039V73.8H164.639ZM174.039 23.7V36.3H162.839V64H149.539V-9.53674e-07H162.839V23.7H174.039ZM100.739 23.3V27C100.739 33.8 105.139 39.1 112.039 39.1C118.839 39.1 123.339 33.8 123.339 27V23.3C123.339 16.4 118.839 11.2 112.039 11.2C105.139 11.2 100.739 16.4 100.739 23.3ZM87.6391 27V23.3C87.6391 9.8 97.8391 -9.53674e-07 112.039 -9.53674e-07C126.239 -9.53674e-07 136.439 9.8 136.439 23.3V27C136.439 40.4 126.239 50.3 112.039 50.3C97.8391 50.3 87.6391 40.4 87.6391 27Z" fill="#1E1F24"/>
</svg>
