<svg width="167" height="88" viewBox="0 0 167 88" fill="none" xmlns="http://www.w3.org/2000/svg">
<path d="M23.8 -9.53674e-07H32.8C45.4 -9.53674e-07 53.7 7.79999 53.7 18.4C53.7 28.3 46.3 35.8 34.9 36.6V44.3H58.1V55.8H0.6V44.3H21.8V36.6C10.3 35.9 3 28.3 3 18.4C3 7.79999 11.1 -9.53674e-07 23.8 -9.53674e-07ZM32.3 10.7H24.3C18.9 10.7 15.7 13.9 15.7 18.4C15.7 22.8 18.9 26 24.3 26H32.3C37.7 26 41 22.8 41 18.4C41 13.9 37.7 10.7 32.3 10.7ZM63.5 -9.53674e-07H76.8V25.2H88V37.8H76.8V63.5H63.5V-9.53674e-07ZM78.6 85.9H5.8V60.6H19V74H78.6V85.9ZM104.939 -9.53674e-07H118.239C118.239 5.49999 117.639 11 116.339 16.3C122.139 24.4 131.639 31.8 141.039 36.5L133.639 46.6C125.839 42.7 117.539 36.3 111.539 29.6C107.739 37.2 102.439 43.8 95.4391 48.8L85.1391 40.7C98.5391 31.4 104.939 17.1 104.939 -9.53674e-07ZM113.939 51.7H143.539C157.339 51.7 166.039 59 166.039 69.5C166.039 81 157.339 87.3 143.539 87.3H113.939C100.039 87.3 91.3391 81 91.3391 69.5C91.3391 59 100.039 51.7 113.939 51.7ZM143.539 62.9H113.939C108.439 62.9 104.939 65.6 104.939 69.5C104.939 73.5 108.439 76.1 113.939 76.1H143.539C148.839 76.1 152.439 73.5 152.439 69.5C152.439 65.6 148.839 62.9 143.539 62.9ZM151.439 12.9V-9.53674e-07H164.639V48.9H151.439V24.7H131.639V12.9H151.439Z" fill="#1E1F24"/>
</svg>
