<svg width="167" height="88" viewBox="0 0 167 88" fill="none" xmlns="http://www.w3.org/2000/svg">
<path d="M0.6 38.2H83.3V49.1H0.6V38.2ZM58 33.2H26C11.4 33.2 3.9 27.4 3.9 16.6C3.9 6.7 11.4 -9.53674e-07 26 -9.53674e-07H58C72.5 -9.53674e-07 80 6.7 80 16.6C80 27.4 72.5 33.2 58 33.2ZM26.1 22.5H57.9C64 22.5 66.4 20.1 66.4 16.6C66.4 13.2 64 10.8 57.9 10.8H26.1C20.4 10.8 17.4 13.2 17.4 16.6C17.4 20.1 20 22.5 26.1 22.5ZM80 70.8C80 81.4 72.1 87.3 58 87.3H26C11.9 87.3 3.9 81.4 3.9 70.8C3.9 60.8 11.9 54.3 26 54.3H58C72.1 54.3 80 60.8 80 70.8ZM66.4 70.8C66.4 67.4 63.7 64.9 57.3 64.9H26.6C20.7 64.9 17.5 67.4 17.5 70.8C17.5 74.3 20.3 76.7 26.6 76.7H57.3C63.7 76.7 66.4 74.3 66.4 70.8ZM151.439 61.9H131.639V51.7H151.439V-9.53674e-07H164.639V67H151.439V61.9ZM166.539 74.1V85.9H92.7391V62.4H106.039V74.1H166.539ZM119.539 33.4H109.239C96.5391 33.4 89.0391 26.9 89.0391 16.7C89.0391 6.6 96.5391 -9.53674e-07 109.239 -9.53674e-07H119.539C132.239 -9.53674e-07 139.739 6.6 139.739 16.7C139.739 26.9 132.239 33.4 119.539 33.4ZM109.239 22.9H119.539C123.939 22.9 127.039 20.7 127.039 16.7C127.039 12.7 123.939 10.6 119.539 10.6H109.239C104.739 10.6 101.739 12.7 101.739 16.7C101.739 20.7 104.739 22.9 109.239 22.9ZM143.839 37.3V47.9H116.839V60.6H103.539V47.9H86.6391V37.3H143.839Z" fill="#1E1F24"/>
</svg>
