<svg width="248" height="87" viewBox="0 0 248 87" fill="none" xmlns="http://www.w3.org/2000/svg">
<path d="M75.6 86.4H63V-9.53674e-07H75.6V86.4ZM12.4 19.5V65.1C12.4 69.8 14.6 72 18 72C21.5 72 23.6 69.8 23.6 65.1V19.5C23.6 14.8 21.5 12.6 18 12.6C14.6 12.6 12.4 14.8 12.4 19.5ZM2.38419e-07 65.1V19.5C2.38419e-07 6.39999 8.1 0.399994 18 0.399994C27.9 0.399994 36.2 6.39999 36.2 19.5V33H43.8V0.399994H56.3V85.4H43.8V45.1H36.2V65.1C36.2 78.1 27.9 84 18 84C8.1 84 2.38419e-07 78.1 2.38419e-07 65.1ZM86.9391 82.6V1.4H100.239V70.5H139.139V82.6H86.9391ZM161.639 -9.53674e-07V86.4H148.439V42.4H120.239V29.7H148.439V-9.53674e-07H161.639ZM172.978 1.4H220.978V13.5H202.078C201.878 21 201.378 28.2 200.278 35.1C205.478 49.9 214.478 64.4 225.978 74.7L215.778 83.1C207.778 75.3 200.878 65.2 195.678 54.9C192.278 65.4 187.378 75.1 180.978 83.8L169.178 77.4C182.878 58.7 188.478 39.2 188.878 13.5H172.978V1.4ZM247.678 -9.53674e-07V86.4H234.478V-9.53674e-07H247.678Z" fill="#1E1F24"/>
</svg>
