<svg width="207" height="90" viewBox="0 0 207 90" fill="none" xmlns="http://www.w3.org/2000/svg">
<rect opacity="0.4" y="78" width="206" height="8" rx="2" fill="url(#paint0_linear_13358_10007)"/>
<path d="M7.664 11.616H6.16C6.112 10.608 5.584 9.952 4.272 9.952C2.928 9.952 2.256 10.56 2.256 11.76C2.256 13.056 2.928 13.648 4.048 13.84L4.656 13.952C6.768 14.32 7.968 15.424 7.968 17.408C7.968 19.728 6.688 20.928 4.368 20.928H4.08C1.872 20.928 0.672 19.92 0.592 17.888H2.096C2.16 19.056 2.848 19.584 4.08 19.584H4.368C5.744 19.584 6.464 18.896 6.464 17.536C6.464 16.224 5.936 15.52 4.656 15.296L4.048 15.2C2.048 14.848 0.752 13.872 0.752 11.76C0.752 9.728 2.016 8.608 4.272 8.608C6.464 8.608 7.568 9.616 7.664 11.616ZM10.2756 8.752L12.9796 15.52L15.6836 8.752H17.1876V20.768H15.6836V15.152L15.8436 11.968L13.3636 18.608H12.4516L10.1316 11.984L10.2756 15.152V20.768H8.77163V8.752H10.2756ZM21.604 17.184V12.672C21.604 9.728 23.108 8.304 25.3 8.304C27.476 8.304 28.98 9.728 28.98 12.672V17.184C28.98 20.096 27.476 21.52 25.3 21.52C23.108 21.52 21.604 20.096 21.604 17.184ZM23.108 12.672V17.184C23.108 19.28 23.86 20.176 25.3 20.176C26.724 20.176 27.476 19.28 27.476 17.184V12.672C27.476 10.56 26.724 9.664 25.3 9.664C23.86 9.664 23.108 10.56 23.108 12.672ZM33.188 15.024V21.984H31.684V8.16H33.188V13.68H35.14V15.024H33.188ZM43.3542 21.376H35.5302V8.448H42.4422V9.808H37.0342V13.872H42.4422V15.216H37.0342V20.016H43.3542V21.376ZM47.2582 8.16V21.984H45.7542V8.16H47.2582ZM61.9205 20.016V21.376H48.6885V20.016H61.9205ZM49.6005 16.208L48.6885 15.088C51.9045 13.936 54.2565 11.312 54.8165 8.16L56.3045 8.448C56.1925 9.136 55.9845 9.824 55.6965 10.48C57.2165 12.352 59.4725 13.84 61.9205 14.496L61.1365 15.696C58.8325 15.008 56.5605 13.552 54.9925 11.808C53.7285 13.808 51.7445 15.408 49.6005 16.208ZM64.7107 9.808V12.208H74.9348V13.568H64.7107V16.048H75.0948V17.408H63.2067V8.448H74.9348V9.808H64.7107ZM75.6868 20.016V21.376H62.4547V20.016H75.6868ZM84.797 12.064C84.797 14.32 83.149 15.968 80.733 15.968C78.333 15.968 76.669 14.32 76.669 12.064C76.669 9.808 78.333 8.16 80.733 8.16C83.149 8.16 84.797 9.808 84.797 12.064ZM88.253 15.024V21.984H86.749V8.16H88.253V13.68H90.205V15.024H88.253ZM83.293 12.064C83.293 10.64 82.317 9.504 80.733 9.504C79.149 9.504 78.173 10.64 78.173 12.064C78.173 13.488 79.149 14.624 80.733 14.624C82.317 14.624 83.293 13.488 83.293 12.064ZM85.645 20.016V21.376H76.221V20.016H79.949V16.72H81.453V20.016H85.645ZM105.753 20.48V21.824H94.1689V17.632H95.6729V20.48H105.753ZM105.449 8.16V18.224H103.945V13.2H102.329V17.936H100.857V8.224H102.329V11.84H103.945V8.16H105.449ZM100.041 8.448V9.808H93.7209V8.448H100.041ZM98.7769 15.216H100.329V16.576H93.4169V15.216H94.7769V10.56H96.2809V15.216H97.2729L97.7049 10.56H99.2089L98.7769 15.216ZM119.519 20.496V21.824H107.631V18.176H117.855V17.232H107.631V15.904H119.359V19.488H109.135V20.496H119.519ZM106.879 13.568H120.111V14.912H106.879V13.568ZM119.439 12.64H107.631V8.448H119.359V9.792H109.135V11.296H119.439V12.64ZM120.645 21.376V20.016H130.373V21.376H120.645ZM131.477 21.984V8.16H132.981V21.984H131.477ZM129.221 12.064C129.221 14.32 127.573 15.968 125.157 15.968C122.757 15.968 121.093 14.32 121.093 12.064C121.093 9.808 122.757 8.16 125.157 8.16C127.573 8.16 129.221 9.808 129.221 12.064ZM127.717 12.064C127.717 10.64 126.741 9.504 125.157 9.504C123.573 9.504 122.597 10.64 122.597 12.064C122.597 13.488 123.573 14.624 125.157 14.624C126.741 14.624 127.717 13.488 127.717 12.064Z" fill="#1E1F24"/>
<path d="M1.184 38.448H7.792V39.248C7.792 42.96 5.104 45.728 1.328 46.624L0.544 45.424C3.856 44.784 6.096 42.56 6.288 39.808H1.184V38.448ZM12.912 38.16V48.608H11.408V43.264H7.776V41.92H11.408V38.16H12.912ZM13.216 50.48V51.824H1.632V47.472H3.136V50.48H13.216ZM23.0623 52.128H18.7102C16.4542 52.128 15.0942 50.992 15.0942 49.36C15.0942 47.712 16.4542 46.576 18.7102 46.576H23.0623C25.3183 46.576 26.6783 47.712 26.6783 49.36C26.6783 50.992 25.3183 52.128 23.0623 52.128ZM18.7102 50.8H23.0623C24.2782 50.8 25.0942 50.24 25.0942 49.36C25.0942 48.464 24.2782 47.904 23.0623 47.904H18.7102C17.5102 47.904 16.6782 48.464 16.6782 49.36C16.6782 50.24 17.5102 50.8 18.7102 50.8ZM14.9502 38.448H21.5582V39.552C21.5582 43.136 18.7262 45.648 15.0302 46.176L14.3102 44.96C17.7342 44.48 19.9262 42.56 20.0542 39.808H14.9502V38.448ZM28.3263 41.456V42.816H26.3743V46.08H24.8702V38.16H26.3743V41.456H28.3263ZM35.7885 44.176C35.7885 45.904 34.3485 47.184 32.3165 47.184C30.2845 47.184 28.8605 45.904 28.8605 44.176C28.8605 42.448 30.2845 41.168 32.3165 41.168C34.3485 41.168 35.7885 42.448 35.7885 44.176ZM40.4445 50.48V51.824H29.0205V47.776H30.5245V50.48H40.4445ZM42.0925 42.464V43.808H40.1405V48.752H38.6365V38.16H40.1405V42.464H42.0925ZM36.5405 39.136V40.464H28.2685V39.136H31.5645V37.696H33.0685V39.136H36.5405ZM34.2845 44.176C34.2845 43.2 33.5965 42.416 32.3165 42.416C31.0365 42.416 30.3645 43.2 30.3645 44.176C30.3645 45.152 31.0365 45.904 32.3165 45.904C33.5965 45.904 34.2845 45.152 34.2845 44.176ZM52.5364 38.752L48.6004 44.32L52.9844 50.768H51.1924L47.7524 45.536L46.8244 46.832V50.768H45.3204V38.752H46.8244V44.56L50.7284 38.752H52.5364ZM60.1984 44.176V45.52H53.4304V44.176H60.1984ZM68.4249 42.512C68.4249 44.928 67.0649 46.272 64.6649 46.272H62.8569V50.768H61.3529V38.752H64.6649C67.0649 38.752 68.4249 40.112 68.4249 42.512ZM66.9209 42.512C66.9209 40.704 66.0089 40.112 64.5049 40.112H62.8569V44.928H64.5049C66.0089 44.928 66.9209 44.32 66.9209 42.512ZM74.8155 47.408V42.144C74.8155 40.64 74.0635 39.952 72.6395 39.952C71.2155 39.952 70.4635 40.64 70.4635 42.144V47.408C70.4635 48.912 71.2155 49.584 72.6395 49.584C74.0635 49.584 74.8155 48.912 74.8155 47.408ZM76.3195 41.984V47.552C76.3195 49.728 74.9755 50.928 72.6395 50.928C70.3035 50.928 68.9595 49.728 68.9595 47.552V41.984C68.9595 39.808 70.3035 38.608 72.6395 38.608C74.9755 38.608 76.3195 39.808 76.3195 41.984ZM84.3949 42.512C84.3949 44.928 83.0349 46.272 80.6349 46.272H78.8269V50.768H77.3229V38.752H80.6349C83.0349 38.752 84.3949 40.112 84.3949 42.512ZM82.8909 42.512C82.8909 40.704 81.9789 40.112 80.4749 40.112H78.8269V44.928H80.4749C81.9789 44.928 82.8909 44.32 82.8909 42.512ZM100.519 50.48V51.824H88.6311V47.776H90.1351V50.48H100.519ZM100.359 38.448V43.712H88.6311V38.448H100.359ZM90.1351 42.384H98.8551V39.792H90.1351V42.384ZM95.3191 48.992H93.8151V46.432H87.8791V45.072H101.111V46.432H95.3191V48.992ZM109.773 44.176C109.773 45.968 108.269 47.248 106.157 47.248C104.061 47.248 102.557 45.968 102.557 44.176C102.557 42.368 104.061 41.088 106.157 41.088C108.269 41.088 109.773 42.368 109.773 44.176ZM108.269 44.176C108.269 43.168 107.437 42.368 106.157 42.368C104.877 42.368 104.061 43.168 104.061 44.176C104.061 45.184 104.877 45.952 106.157 45.952C107.437 45.952 108.269 45.184 108.269 44.176ZM113.677 45.024V51.984H112.173V38.16H113.677V43.68H115.629V45.024H113.677ZM111.229 50.016V51.376H101.645V50.016H105.437V47.776H106.941V50.016H111.229ZM110.381 39.136V40.48H101.949V39.136H105.405V37.696H106.909V39.136H110.381ZM128.052 50.528V51.824H116.164V48.496H126.388V47.792H116.164V46.496H127.892V49.776H117.668V50.528H128.052ZM115.412 44.464H128.644V45.776H115.412V44.464ZM128.052 42.464V43.76H116.164V40.464H126.388V39.744H116.164V38.448H127.892V41.744H117.668V42.464H128.052ZM140.575 41.536C140.575 43.68 138.847 44.928 136.671 44.928C134.479 44.928 132.751 43.664 132.751 41.536C132.751 39.424 134.479 38.16 136.671 38.16C138.847 38.16 140.575 39.408 140.575 41.536ZM139.071 41.536C139.071 40.416 138.175 39.456 136.671 39.456C135.167 39.456 134.255 40.416 134.255 41.536C134.255 42.672 135.167 43.616 136.671 43.616C138.175 43.616 139.071 42.672 139.071 41.536ZM144.639 38.16V51.984H143.135V38.16H144.639ZM142.191 46.272V47.632H137.215V51.984H135.711V47.632H132.303V46.272H142.191ZM152.39 45.68V48.688C152.39 50.48 151.334 51.52 149.526 51.52C147.734 51.52 146.678 50.48 146.678 48.688V45.68C146.678 43.872 147.734 42.816 149.526 42.816C151.334 42.816 152.39 43.872 152.39 45.68ZM150.886 48.688V45.68C150.886 44.768 150.438 44.176 149.526 44.176C148.63 44.176 148.182 44.768 148.182 45.68V48.688C148.182 49.584 148.63 50.176 149.526 50.176C150.438 50.176 150.886 49.584 150.886 48.688ZM158.406 38.16V51.984H156.902V45.072H155.094V51.824H153.59V38.224H155.094V43.712H156.902V38.16H158.406ZM152.71 39.808V41.168H146.374V39.808H148.774V37.696H150.278V39.808H152.71Z" fill="#1E1F24"/>
<path d="M9.152 75.328H5.248C2.64 75.328 0.96 73.936 0.96 71.744C0.96 69.568 2.64 68.16 5.248 68.16H9.152C11.744 68.16 13.44 69.568 13.44 71.744C13.44 73.936 11.744 75.328 9.152 75.328ZM5.264 73.392H9.104C10.464 73.392 11.248 72.752 11.248 71.744C11.248 70.72 10.464 70.096 9.104 70.096H5.264C3.92 70.096 3.152 70.72 3.152 71.744C3.152 72.752 3.92 73.392 5.264 73.392ZM13.808 76.8V78.752H8.32V82.128H6.064V78.752H0.576V76.8H13.808ZM26.8223 68.16V81.984H24.7102V68.16H26.8223ZM22.8383 79.456V81.376H14.8702V73.712H19.8622V70.32H14.8702V68.384H21.9902V75.648H16.9982V79.456H22.8383ZM28.1085 74.8H41.3405V76.688H28.1085V74.8ZM40.8125 79.968V81.904H28.7805V77.648H30.9085V79.968H40.8125ZM28.7805 73.408V68.224H30.9085V71.536H40.7805V73.408H28.7805ZM57.1924 76.928V81.904H45.8324V76.928H57.1924ZM49.5124 76.272H48.9204C47.0324 76.272 45.6084 75.264 45.6084 73.616C45.6084 71.968 47.0324 70.944 48.9204 70.944H49.5124C51.4004 70.944 52.8244 71.968 52.8244 73.616C52.8244 75.264 51.4004 76.272 49.5124 76.272ZM47.9444 80.176H55.0644V78.656H47.9444V80.176ZM58.9844 71.296V73.312H57.1924V76.384H55.0644V68.16H57.1924V71.296H58.9844ZM53.4324 68.752V70.48H45.0804V68.752H48.1204V67.632H50.2484V68.752H53.4324ZM48.9204 74.64H49.5124C50.2484 74.64 50.7924 74.224 50.7924 73.616C50.7924 72.976 50.2484 72.56 49.5124 72.56H48.9204C48.1684 72.56 47.6404 72.976 47.6404 73.616C47.6404 74.224 48.1684 74.64 48.9204 74.64ZM71.2466 81.984H69.2946V68.16H71.2466V81.984ZM62.7666 68.384H65.5666V73.44H66.4786V68.224H68.4306V81.824H66.4786V75.376H65.4866C65.3426 77.552 64.9266 79.792 63.7746 81.616L61.9026 80.928C63.3586 78.704 63.6306 75.824 63.6306 73.28V70.32H62.7666V68.384ZM59.2946 68.384H62.4146V72.176C62.4146 75.152 62.2546 78.512 60.5746 81.088L58.6866 80.4C60.1586 78.32 60.4626 75.376 60.4626 72.832V70.32H59.2946V68.384ZM75.6585 74.272H88.8905V76.016H75.6585V74.272ZM84.8425 73.472H79.7225C77.3865 73.472 76.1865 72.544 76.1865 70.816C76.1865 69.232 77.3865 68.16 79.7225 68.16H84.8425C87.1625 68.16 88.3625 69.232 88.3625 70.816C88.3625 72.544 87.1625 73.472 84.8425 73.472ZM79.7385 71.76H84.8265C85.8025 71.76 86.1865 71.376 86.1865 70.816C86.1865 70.272 85.8025 69.888 84.8265 69.888H79.7385C78.8265 69.888 78.3465 70.272 78.3465 70.816C78.3465 71.376 78.7625 71.76 79.7385 71.76ZM88.3625 79.488C88.3625 81.184 87.0985 82.128 84.8425 82.128H79.7225C77.4665 82.128 76.1865 81.184 76.1865 79.488C76.1865 77.888 77.4665 76.848 79.7225 76.848H84.8425C87.0985 76.848 88.3625 77.888 88.3625 79.488ZM86.1865 79.488C86.1865 78.944 85.7545 78.544 84.7305 78.544H79.8185C78.8745 78.544 78.3625 78.944 78.3625 79.488C78.3625 80.048 78.8105 80.432 79.8185 80.432H84.7305C85.7545 80.432 86.1865 80.048 86.1865 79.488ZM99.7927 78.064H96.6247V76.432H99.7927V68.16H101.905V78.88H99.7927V78.064ZM102.209 80.016V81.904H90.4007V78.144H92.5287V80.016H102.209ZM94.6887 73.504H93.0407C91.0087 73.504 89.8087 72.464 89.8087 70.832C89.8087 69.216 91.0087 68.16 93.0407 68.16H94.6887C96.7207 68.16 97.9207 69.216 97.9207 70.832C97.9207 72.464 96.7207 73.504 94.6887 73.504ZM93.0407 71.824H94.6887C95.3927 71.824 95.8887 71.472 95.8887 70.832C95.8887 70.192 95.3927 69.856 94.6887 69.856H93.0407C92.3207 69.856 91.8407 70.192 91.8407 70.832C91.8407 71.472 92.3207 71.824 93.0407 71.824ZM98.5767 74.128V75.824H94.2567V77.856H92.1287V75.824H89.4247V74.128H98.5767ZM103.799 77.936V76.208C103.799 73.92 105.335 72.592 107.479 72.592C109.607 72.592 111.159 73.92 111.159 76.208V77.936C111.159 80.224 109.607 81.52 107.479 81.52C105.335 81.52 103.799 80.224 103.799 77.936ZM115.383 75.392V81.984H113.255V68.16H115.383V73.36H117.175V75.392H115.383ZM111.559 71.504H103.415V69.584H106.359V67.632H108.503V69.584H111.559V71.504ZM105.831 76.208V77.936C105.831 79.056 106.455 79.664 107.479 79.664C108.487 79.664 109.127 79.056 109.127 77.936V76.208C109.127 75.072 108.487 74.464 107.479 74.464C106.455 74.464 105.831 75.072 105.831 76.208ZM129.517 78.08H127.389V70.336H117.629V68.384H129.517V78.08ZM130.189 79.504V81.456H116.957V79.504H121.245V73.712H123.373V79.504H130.189ZM139.481 70.864C139.433 71.152 139.369 71.424 139.273 71.712C140.153 72.832 141.673 73.792 143.113 74.304L141.993 75.92C140.761 75.44 139.369 74.544 138.393 73.552C137.593 74.752 136.457 75.728 135.193 76.256L133.769 74.816C135.673 74.016 136.985 72.608 137.353 70.864H134.377V69.056H137.353V67.632H139.497V69.056H142.425V70.864H139.481ZM143.913 76.272V68.16H146.041V71.184H147.833V73.2H146.041V76.272H143.913ZM134.681 81.904V76.768H146.041V81.904H134.681ZM143.913 80.144V78.528H136.793V80.144H143.913ZM147.999 77.328V72.448C147.999 69.776 149.423 68.224 151.679 68.224C153.935 68.224 155.359 69.776 155.359 72.448V77.328C155.359 79.968 153.935 81.52 151.679 81.52C149.423 81.52 147.999 79.968 147.999 77.328ZM150.031 72.448V77.328C150.031 78.848 150.623 79.6 151.679 79.6C152.735 79.6 153.311 78.848 153.311 77.328V72.448C153.311 70.928 152.735 70.176 151.679 70.176C150.623 70.176 150.031 70.928 150.031 72.448ZM157.983 77.824H155.839V75.808H157.983V73.328H155.839V71.312H157.983V68.16H160.095V81.984H157.983V77.824ZM173.574 76.544V81.904H162.214V76.544H164.326V77.552H171.462V76.544H173.574ZM165.894 76.192H165.302C163.414 76.192 161.99 75.184 161.99 73.552C161.99 71.936 163.414 70.928 165.302 70.928H165.894C167.782 70.928 169.206 71.936 169.206 73.552C169.206 75.184 167.782 76.192 165.894 76.192ZM175.366 71.104V73.12H173.574V75.968H171.446V68.16H173.574V71.104H175.366ZM169.814 68.752V70.464H161.462V68.752H164.502V67.632H166.63V68.752H169.814ZM164.31 80.224H171.462V79.184H164.31V80.224ZM165.302 74.56H165.894C166.63 74.56 167.174 74.176 167.174 73.552C167.174 72.96 166.63 72.512 165.894 72.512H165.302C164.55 72.512 164.022 72.96 164.022 73.552C164.022 74.176 164.55 74.56 165.302 74.56ZM175.676 81.376V68.384H177.804V79.44H184.172V81.376H175.676ZM187.628 68.16V81.984H185.516V68.16H187.628ZM197.714 81.376H189.442V68.384H196.93V70.32H191.57V79.456H197.714V81.376ZM201.106 75.392V81.984H198.978V68.16H201.106V73.36H202.898V75.392H201.106ZM205.336 81.296H202.904V78.976H205.336V81.296Z" fill="#1E1F24"/>
<defs>
<linearGradient id="paint0_linear_13358_10007" x1="0" y1="82" x2="206" y2="82.0005" gradientUnits="userSpaceOnUse">
<stop stop-color="#C0EED3"/>
<stop offset="0.325956" stop-color="#B6C8EF"/>
<stop offset="0.65978" stop-color="#FCD1CB"/>
<stop offset="1" stop-color="#F0B1DE"/>
</linearGradient>
</defs>
</svg>
