<svg width="256" height="88" viewBox="0 0 256 88" fill="none" xmlns="http://www.w3.org/2000/svg">
<path d="M51.8 41.8H32.1C15.7 41.8 3.9 34.3 3.9 21.1C3.9 8 15.7 0.399994 32.1 0.399994H51.8C68.3 0.399994 80 8 80 21.1C80 34.3 68.3 41.8 51.8 41.8ZM32.1 37.1H51.8C66.4 37.1 74.9 31 74.9 21.1C74.9 11.2 66.4 5.1 51.8 5.1H32.1C17.5 5.1 9.1 11.2 9.1 21.1C9.1 31 17.5 37.1 32.1 37.1ZM83.3 56.8V61.5H44.5V87.3H39.3V61.5H0.6V56.8H83.3ZM138.339 77.4V82.1H90.8391V38.5H126.639V6.5H90.8391V1.79999H131.739V43.2H96.0391V77.4H138.339ZM162.839 -9.53674e-07V86.4H157.639V-9.53674e-07H162.839ZM172.678 46.5H255.378V51.2H172.678V46.5ZM183.078 80.7H251.178V85.4H177.878V60.1H183.078V80.7ZM183.078 26.3H251.178V31H177.878V0.899999H183.078V26.3Z" fill="#1E1F24"/>
</svg>
