<svg width="259" height="90" viewBox="0 0 259 90" fill="none" xmlns="http://www.w3.org/2000/svg">
<path d="M86 24.6V29.3H72.9V50.6H67.7V3H72.9V24.6H86ZM72.9 55.6V88.4H4.7V55.6H9.9V65.5H67.7V55.6H72.9ZM9.9 83.7H67.7V70.2H9.9V83.7ZM28.7 51.4H21.2C10.4 51.4 3.3 44.8 3.3 35.9C3.3 26.9 10.4 20.4 21.2 20.4H28.7C39.5 20.4 46.6 26.9 46.6 35.9C46.6 44.8 39.5 51.4 28.7 51.4ZM50.4 9.1V13.7H7.45058e-08V9.1H22.3V0.0999947H27.5V9.1H50.4ZM21.2 46.9H28.7C36.7 46.9 41.4 42.4 41.4 35.9C41.4 29.3 36.7 24.8 28.7 24.8H21.2C13.2 24.8 8.5 29.3 8.5 35.9C8.5 42.4 13.2 46.9 21.2 46.9ZM142.039 85.1H88.8391V4.79999H94.0391V80.4H142.039V85.1ZM160.839 3V89.4H155.639V3H160.839ZM227.078 85.1H174.878V4.79999H222.378V9.5H180.078V80.4H227.078V85.1ZM244.978 44V89.4H239.778V3H244.978V39.3H258.078V44H244.978Z" fill="#1E1F24"/>
</svg>
