<svg width="417" height="87" viewBox="0 0 417 87" fill="none" xmlns="http://www.w3.org/2000/svg">
<path d="M43.6 26.3V57.8C43.6 74.6 34.7 83.2 22 83.1C9.3 83 0.4 74.6 0.4 57.8V26.3C0.4 9.4 9.3 0.899999 22 0.899999C34.7 0.899999 43.6 9.4 43.6 26.3ZM38.4 57.8V26.3C38.4 12.2 32.3 5.6 22 5.6C11.7 5.6 5.5 12.2 5.5 26.3V57.8C5.5 71.9 11.7 78.4 22 78.4C32.3 78.4 38.4 71.9 38.4 57.8ZM70.9 41V86.4H65.7V-9.53674e-07H70.9V36.3H84V41H70.9ZM136.239 82.1H86.8391V1.79999H130.639V6.5H92.0391V37.6H130.639V42.3H92.0391V77.4H136.239V82.1ZM158.839 -9.53674e-07V86.4H153.639V-9.53674e-07H158.839ZM251.378 77.4V82.1H168.678V77.4H251.378ZM172.978 50.3L169.678 46.2C189.178 39.2 204.978 21.5 208.478 -9.53674e-07L213.478 0.899999C212.778 5.4 211.578 9.7 209.878 13.9C219.178 28 234.178 38.3 250.378 43.7L247.578 48C231.878 42.7 217.178 31.6 207.678 18.8C200.278 33.5 187.278 45.1 172.978 50.3ZM333.217 51.7V56.4H259.917V1.79999H332.317V6.5H265.117V26.8H332.317V31.5H265.117V51.7H333.217ZM337.417 77.4V82.1H254.717V77.4H337.417ZM392.956 24.4C392.956 38 382.556 48.4 368.456 48.4C354.356 48.4 344.056 38 344.056 24.4C344.056 10.8 354.356 0.399994 368.456 0.399994C382.556 0.399994 392.956 10.8 392.956 24.4ZM387.756 24.4C387.756 13.1 380.256 5.1 368.456 5.1C356.756 5.1 349.256 13.1 349.256 24.4C349.256 35.7 356.756 43.7 368.456 43.7C380.256 43.7 387.756 35.7 387.756 24.4ZM416.956 -9.53674e-07V86.4H411.756V-9.53674e-07H416.956ZM403.456 82.1H340.756V77.4H403.456V82.1Z" fill="#1E1F24"/>
</svg>
