<svg width="365" height="87" viewBox="0 0 365 87" fill="none" xmlns="http://www.w3.org/2000/svg">
<path d="M3.8 1.79999H42.9V20C42.9 47.5 28 69.9 3.5 82.2L0.1 78.2C24.2 66.1 37.7 45.2 37.7 19.9V6.5H3.8V1.79999ZM73.9 41V86.4H68.7V-9.53674e-07H73.9V36.3H87V41H73.9ZM181.374 -9.53674e-07V50.4H176.174V-9.53674e-07H181.374ZM181.374 54.5V85.4H112.274V54.5H117.374V63.4H176.174V54.5H181.374ZM117.374 80.7H176.174V68.1H117.374V80.7ZM114.574 23.5H158.274V28.2H135.474V42H168.774V46.7H105.174V42H130.274V28.2H109.374V1.79999H157.374V6.5H114.574V23.5ZM248.613 82.1H195.413V1.79999H200.613V77.4H248.613V82.1ZM267.413 -9.53674e-07V86.4H262.213V-9.53674e-07H267.413ZM333.652 82.1H281.452V1.79999H328.952V6.5H286.652V77.4H333.652V82.1ZM351.552 41V86.4H346.352V-9.53674e-07H351.552V36.3H364.652V41H351.552Z" fill="#1E1F24"/>
</svg>
