<svg width="16" height="16" viewBox="0 0 16 16" fill="none" xmlns="http://www.w3.org/2000/svg">
<path fill-rule="evenodd" clip-rule="evenodd" d="M7.99201 14.6547C6.67465 14.6543 5.387 14.2632 4.29187 13.531C3.19675 12.7988 2.34335 11.7583 1.83959 10.5411C1.33582 9.32386 1.20432 7.98458 1.46171 6.69261C1.7191 5.40065 2.35383 4.21402 3.28562 3.28279C4.21741 2.35156 5.40442 1.71755 6.69654 1.46093C7.98866 1.20432 9.32785 1.33662 10.5448 1.84112C11.7617 2.34561 12.8017 3.19964 13.5333 4.2952C14.2648 5.39076 14.6551 6.67865 14.6547 7.99601C14.6526 9.76204 13.9498 11.4551 12.7006 12.7035C11.4515 13.9519 9.75804 14.6536 7.99201 14.6547ZM7.99201 2.63267C6.93178 2.63294 5.89543 2.94755 5.01398 3.53673C4.13253 4.12591 3.44556 4.96321 3.03992 5.94277C2.63428 6.92234 2.52818 8.00018 2.73504 9.04003C2.9419 10.0799 3.45242 11.0351 4.20207 11.7848C4.95172 12.5345 5.90683 13.0452 6.94666 13.2522C7.98649 13.4592 9.06434 13.3532 10.044 12.9477C11.0236 12.5422 11.861 11.8553 12.4502 10.9739C13.0395 10.0925 13.3543 9.05624 13.3547 7.99601C13.3534 6.57406 12.7881 5.21069 11.7827 4.20516C10.7773 3.19962 9.41395 2.63408 7.99201 2.63267ZM7.99201 11.11C7.90665 11.1104 7.82204 11.0941 7.74301 11.0618C7.66398 11.0295 7.59208 10.982 7.53141 10.922C7.40889 10.8007 7.33956 10.6357 7.33867 10.4633C7.33779 10.2909 7.40542 10.1253 7.5267 10.0027C7.64797 9.88022 7.81295 9.81089 7.98534 9.81001H7.99201C8.07736 9.80979 8.16193 9.82638 8.24088 9.85885C8.31982 9.89131 8.3916 9.939 8.45211 9.99921C8.51263 10.0594 8.56069 10.1309 8.59356 10.2097C8.62642 10.2885 8.64345 10.373 8.64367 10.4583C8.64389 10.5437 8.6273 10.6283 8.59483 10.7072C8.56237 10.7862 8.51467 10.8579 8.45447 10.9184C8.39427 10.979 8.32273 11.027 8.24396 11.0599C8.16518 11.0928 8.0807 11.1098 7.99534 11.11H7.99201ZM7.98801 9.04867C7.81561 9.04867 7.65028 8.98019 7.52839 8.85829C7.40649 8.73639 7.33801 8.57106 7.33801 8.39867V5.52934C7.33801 5.35695 7.40649 5.19162 7.52839 5.06972C7.65028 4.94782 7.81561 4.87934 7.98801 4.87934C8.1604 4.87934 8.32573 4.94782 8.44763 5.06972C8.56952 5.19162 8.63801 5.35695 8.63801 5.52934V8.39601C8.63836 8.48159 8.6218 8.5664 8.58929 8.64557C8.55679 8.72474 8.50896 8.79671 8.44857 8.85735C8.38818 8.91799 8.3164 8.96611 8.23737 8.99894C8.15833 9.03177 8.07359 9.04867 7.98801 9.04867Z" fill="#1E1F24"/>
</svg>
