<svg width="24" height="24" viewBox="0 0 24 24" fill="none" xmlns="http://www.w3.org/2000/svg">
<path fill-rule="evenodd" clip-rule="evenodd" d="M17.74 22H15.907C15.3632 22.0034 14.8396 21.7946 14.4474 21.4179C14.0552 21.0413 13.8255 20.5265 13.807 19.983V17.183C13.8026 17.0787 13.7575 16.9802 13.6815 16.9086C13.6054 16.8371 13.5044 16.7981 13.4 16.8H10.649C10.546 16.7999 10.4469 16.8396 10.3723 16.9107C10.2978 16.9819 10.2536 17.0791 10.249 17.182V19.97C10.249 20.0501 10.2379 20.1299 10.216 20.207C10.1413 20.7134 9.88423 21.175 9.4931 21.5052C9.10197 21.8354 8.60373 22.0113 8.092 22H6.26C5.15993 22.0277 4.09376 21.6181 3.29521 20.861C2.49666 20.1038 2.03089 19.061 2 17.961V10.038C2.00589 9.55553 2.12616 9.08134 2.35094 8.65439C2.57571 8.22744 2.89857 7.85991 3.293 7.582L9.512 2.818C10.2247 2.2815 11.0925 1.99136 11.9845 1.99136C12.8765 1.99136 13.7443 2.2815 14.457 2.818L20.726 7.591C21.113 7.86808 21.4298 8.23188 21.651 8.65332C21.8722 9.07475 21.9917 9.5421 22 10.018V17.961C21.9691 19.061 21.5033 20.1038 20.7048 20.861C19.9062 21.6181 18.8401 22.0277 17.74 22ZM13.4 14.982C13.9988 14.9675 14.579 15.1908 15.0134 15.6032C15.4479 16.0155 15.7012 16.5832 15.718 17.182V19.982C15.7208 20.0367 15.7449 20.0882 15.785 20.1255C15.8251 20.1629 15.8782 20.1831 15.933 20.182H17.74C18.3474 20.2003 18.9373 19.9766 19.3799 19.5601C19.8224 19.1436 20.0815 18.5684 20.1 17.961V10.03C20.0945 9.83133 20.0427 9.63668 19.9488 9.46153C19.8549 9.28637 19.7214 9.13553 19.559 9.021L13.27 4.237C12.8975 3.96272 12.4471 3.81477 11.9845 3.81477C11.5219 3.81477 11.0715 3.96272 10.699 4.237L4.465 9.016C4.29535 9.13026 4.15554 9.28348 4.05724 9.46285C3.95894 9.64222 3.90503 9.84252 3.9 10.047V17.961C3.91959 18.5677 4.17907 19.1419 4.62152 19.5576C5.06396 19.9732 5.65323 20.1963 6.26 20.178H8.092C8.15003 20.1807 8.20679 20.1604 8.24988 20.1214C8.29297 20.0824 8.31889 20.028 8.322 19.97C8.32188 19.9102 8.32791 19.8506 8.34 19.792V17.182C8.35753 16.5867 8.60863 16.0222 9.03902 15.6105C9.4694 15.1988 10.0445 14.9731 10.64 14.982H13.4Z" fill="white"/>
</svg>
