<svg width="24" height="24" viewBox="0 0 24 24" fill="none" xmlns="http://www.w3.org/2000/svg">
<path fill-rule="evenodd" clip-rule="evenodd" d="M12 22.007C10.02 22.007 4 22.007 4 18.136C4 14.287 10.024 14.287 12 14.287C13.976 14.287 20 14.287 20 18.158C20 22.007 13.98 22.007 12 22.007ZM12 16.248C9.243 16.248 5.956 16.575 5.956 18.137C5.956 19.716 9.243 20.047 12 20.047C14.757 20.047 18.043 19.72 18.043 18.158C18.044 16.579 14.758 16.247 12 16.247V16.248ZM12 12.974H11.969C10.5123 13.0169 9.0981 12.4799 8.03702 11.4809C6.97594 10.4819 6.35472 9.10261 6.30979 7.64596C6.26486 6.1893 6.79988 4.77437 7.79737 3.71188C8.79486 2.64939 10.1733 2.02623 11.6298 1.97924C13.0864 1.93226 14.5021 2.46529 15.566 3.46128C16.6299 4.45727 17.255 5.83478 17.3041 7.29131C17.3531 8.74783 16.8221 10.1643 15.8276 11.2296C14.8331 12.2949 13.4565 12.9219 12 12.973V12.974ZM12 3.963C11.0651 3.95929 10.167 4.32711 9.50335 4.98555C8.83966 5.64399 8.46471 6.53911 8.461 7.474C8.45729 8.40889 8.82511 9.30696 9.48355 9.97065C10.142 10.6343 11.0371 11.0093 11.972 11.013L12 11.993V11.013C12.935 11.013 13.8317 10.6416 14.4929 9.98041C15.1541 9.31925 15.5255 8.42252 15.5255 7.4875C15.5255 6.55248 15.1541 5.65576 14.4929 4.9946C13.8317 4.33344 12.935 3.962 12 3.962V3.963Z" fill="#1E1F24"/>
</svg>
