<svg width="24" height="24" viewBox="0 0 24 24" fill="none" xmlns="http://www.w3.org/2000/svg">
<path d="M7.79354 9.45794C7.29332 9.45794 6.88404 9.86721 6.88404 10.3674V16.6066C6.88404 17.1069 7.29332 17.5161 7.79354 17.5161C8.29377 17.5161 8.70305 17.1069 8.70305 16.6066V10.3674C8.70305 9.86721 8.29377 9.45794 7.79354 9.45794Z" fill="#1E1F24"/>
<path d="M12.0409 6.47476C11.5407 6.47476 11.1314 6.88404 11.1314 7.38427V16.6066C11.1314 17.1069 11.5407 17.5161 12.0409 17.5161C12.5412 17.5161 12.9504 17.1069 12.9504 16.6066V7.38427C12.9504 6.88404 12.5412 6.47476 12.0409 6.47476Z" fill="#1E1F24"/>
<path d="M16.2156 12.7594C15.7153 12.7594 15.306 13.1687 15.306 13.6689V16.6066C15.306 17.1069 15.7153 17.5161 16.2156 17.5161C16.7158 17.5161 17.1251 17.1069 17.1251 16.6066V13.6689C17.1251 13.1687 16.7158 12.7594 16.2156 12.7594Z" fill="#1E1F24"/>
<path d="M16.2701 2H7.73897C4.36471 2 2 4.46476 2 7.98454V16.0155C2 19.5989 4.31014 22 7.73897 22H16.261C19.699 22 22 19.5898 22 16.0155V7.98454C22 4.40109 19.6899 2 16.261 2H16.2701ZM20.1901 16.0246C20.1901 18.5985 18.6894 20.1901 16.2701 20.1901H7.73897C5.31969 20.1901 3.81901 18.5894 3.81901 16.0246V7.98454C3.81901 5.44702 5.35607 3.81901 7.73897 3.81901H16.261C18.6803 3.81901 20.181 5.41974 20.181 7.98454V16.0155L20.1901 16.0246Z" fill="#1E1F24"/>
</svg>
