<svg width="24" height="24" viewBox="0 0 24 24" fill="none" xmlns="http://www.w3.org/2000/svg">
<path fill-rule="evenodd" clip-rule="evenodd" d="M11.9999 18.848C6.95095 18.848 2.38695 18.5 1.99995 14.308C1.9644 13.1002 2.32625 11.9142 3.02995 10.932C3.65556 10.0663 3.9661 9.01261 3.90995 7.946C3.91495 4.591 7.16295 1 11.9999 1C16.8369 1 20.0859 4.591 20.0859 7.945C20.03 9.01159 20.3405 10.0652 20.9659 10.931C21.6574 11.887 22.0202 13.0414 21.9999 14.221C21.6139 18.5 17.0489 18.848 11.9999 18.848ZM19.1609 11.961C18.3414 10.7863 17.9271 9.37637 17.9809 7.945C17.9809 5.606 15.5249 3 11.9999 3C8.47495 3 6.01995 5.606 6.01995 7.945C6.07417 9.37656 5.65949 10.7867 4.83895 11.961C4.34476 12.6091 4.08621 13.4062 4.10595 14.221C4.26595 15.934 5.53295 16.848 12.0009 16.848C18.4329 16.848 19.7389 15.894 19.9009 14.134C19.9033 13.3475 19.6428 12.5827 19.1609 11.961ZM10.1719 20.19C10.3967 20.4395 10.6703 20.6401 10.9758 20.7794C11.2813 20.9188 11.6122 20.9938 11.9479 21C12.285 20.9941 12.6172 20.9191 12.9241 20.7796C13.2309 20.6401 13.5059 20.4391 13.7319 20.189C13.9242 19.9907 14.1845 19.8728 14.4604 19.859C14.7362 19.8453 15.007 19.9368 15.2179 20.115C15.32 20.1998 15.4035 20.3048 15.4632 20.4233C15.5229 20.5419 15.5574 20.6715 15.5648 20.804C15.5721 20.9365 15.552 21.0691 15.5057 21.1935C15.4595 21.3179 15.3881 21.4315 15.2959 21.527C14.8688 21.9888 14.3513 22.3579 13.7755 22.6113C13.1997 22.8647 12.578 22.997 11.9489 23C11.3208 22.9964 10.7001 22.8636 10.1255 22.6099C9.55093 22.3561 9.0347 21.9868 8.60895 21.525C8.51689 21.4294 8.44554 21.3158 8.39937 21.1914C8.3532 21.0669 8.3332 20.9343 8.34061 20.8018C8.34802 20.6693 8.3827 20.5397 8.44246 20.4212C8.50223 20.3027 8.5858 20.1978 8.68795 20.113C8.89957 19.9366 9.16993 19.8466 9.44503 19.8609C9.72013 19.8752 9.97972 19.9927 10.1719 20.19Z" fill="#1E1F24"/>
</svg>
