<svg width="25" height="24" viewBox="0 0 25 24" fill="none" xmlns="http://www.w3.org/2000/svg">
<path fill-rule="evenodd" clip-rule="evenodd" d="M15.5 21H7.5C6.17392 21 4.90215 20.4732 3.96447 19.5355C3.02678 18.5979 2.5 17.3261 2.5 16V12C2.49976 10.8473 2.89778 9.73001 3.62669 8.8371C4.3556 7.94418 5.37064 7.33053 6.5 7.1V6C6.5 4.67392 7.02678 3.40215 7.96447 2.46447C8.90215 1.52678 10.1739 1 11.5 1C12.8261 1 14.0979 1.52678 15.0355 2.46447C15.9732 3.40215 16.5 4.67392 16.5 6V7.1C17.6294 7.33053 18.6444 7.94418 19.3733 8.8371C20.1022 9.73001 20.5002 10.8473 20.5 12V16C20.5 17.3261 19.9732 18.5979 19.0355 19.5355C18.0979 20.4732 16.8261 21 15.5 21ZM14.5 6C14.5 5.20435 14.1839 4.44129 13.6213 3.87868C13.0587 3.31607 12.2956 3 11.5 3C10.7044 3 9.94129 3.31607 9.37868 3.87868C8.81607 4.44129 8.5 5.20435 8.5 6V7H14.5V6ZM18.5 12C18.5 11.2044 18.1839 10.4413 17.6213 9.87868C17.0587 9.31607 16.2956 9 15.5 9H7.5C6.70435 9 5.94129 9.31607 5.37868 9.87868C4.81607 10.4413 4.5 11.2044 4.5 12V16C4.5 16.7956 4.81607 17.5587 5.37868 18.1213C5.94129 18.6839 6.70435 19 7.5 19H15.5C16.2956 19 17.0587 18.6839 17.6213 18.1213C18.1839 17.5587 18.5 16.7956 18.5 16V12ZM11.5 16C11.2348 16 10.9804 15.8946 10.7929 15.7071C10.6054 15.5196 10.5 15.2652 10.5 15V13C10.5 12.7348 10.6054 12.4804 10.7929 12.2929C10.9804 12.1054 11.2348 12 11.5 12C11.7652 12 12.0196 12.1054 12.2071 12.2929C12.3946 12.4804 12.5 12.7348 12.5 13V15C12.5 15.2652 12.3946 15.5196 12.2071 15.7071C12.0196 15.8946 11.7652 16 11.5 16Z" fill="#1E1F24"/>
</svg>
