<svg width="25" height="24" viewBox="0 0 25 24" fill="none" xmlns="http://www.w3.org/2000/svg">
<path fill-rule="evenodd" clip-rule="evenodd" d="M10.5 22.007C8.52 22.007 2.5 22.007 2.5 18.136C2.5 14.287 8.524 14.287 10.5 14.287C12.476 14.287 18.5 14.287 18.5 18.158C18.5 22.007 12.48 22.007 10.5 22.007ZM10.5 16.248C7.743 16.248 4.456 16.575 4.456 18.137C4.456 19.716 7.743 20.047 10.5 20.047C13.257 20.047 16.543 19.72 16.543 18.158C16.544 16.579 13.258 16.247 10.5 16.247V16.248ZM10.5 12.974H10.469C9.01228 13.0169 7.5981 12.4799 6.53702 11.4809C5.47594 10.4819 4.85472 9.10261 4.80979 7.64596C4.76486 6.1893 5.29988 4.77437 6.29737 3.71188C7.29486 2.64939 8.67326 2.02623 10.1298 1.97924C11.5864 1.93226 13.0021 2.46529 14.066 3.46128C15.1299 4.45727 15.755 5.83478 15.8041 7.29131C15.8531 8.74783 15.3221 10.1643 14.3276 11.2296C13.3331 12.2949 11.9565 12.9219 10.5 12.973V12.974ZM10.5 3.963C9.56511 3.95929 8.66704 4.32711 8.00335 4.98555C7.33966 5.64399 6.96471 6.53911 6.961 7.474C6.95729 8.40889 7.32511 9.30696 7.98355 9.97065C8.64199 10.6343 9.53711 11.0093 10.472 11.013L10.5 11.993V11.013C11.435 11.013 12.3317 10.6416 12.9929 9.98041C13.6541 9.31925 14.0255 8.42252 14.0255 7.4875C14.0255 6.55248 13.6541 5.65576 12.9929 4.9946C12.3317 4.33344 11.435 3.962 10.5 3.962V3.963Z" fill="#1E1F24"/>
<path d="M21.7038 9.66922C21.7038 9.11694 21.2561 8.66922 20.7038 8.66922C20.1515 8.66922 19.7038 9.11694 19.7038 9.66922V10.6741H18.6597C18.1074 10.6741 17.6597 11.1218 17.6597 11.6741C17.6597 12.2264 18.1074 12.6741 18.6597 12.6741H19.7038V13.6792C19.7038 14.2315 20.1515 14.6792 20.7038 14.6792C21.2561 14.6792 21.7038 14.2315 21.7038 13.6792V12.6741H22.7497C23.302 12.6741 23.7497 12.2264 23.7497 11.6741C23.7497 11.1218 23.302 10.6741 22.7497 10.6741H21.7038V9.66922Z" fill="#1E1F24"/>
</svg>
