<svg width="150" height="30" viewBox="0 0 150 30" fill="none" xmlns="http://www.w3.org/2000/svg">
<g clip-path="url(#clip0_190_4988)">
<path fill-rule="evenodd" clip-rule="evenodd" d="M148.074 13.3V10.18H141.367V13.3H139.438V6.531L143.664 2.184H145.81L150 6.531V13.3H148.071H148.074ZM148.074 7.18L144.72 3.821L141.367 7.162V8.44H148.074V7.18ZM131.955 13.3H130.01V8.457L125.01 3.357L126.419 1.942L131.013 6.749L135.608 1.942L136.983 3.342L131.952 8.49V13.3H131.955ZM110.755 10.675V5.048L113.355 2.406H121.337V4.23H114.243L112.801 5.713V9.975L114.344 11.543H119.727V8.935H116.227V7.213H121.627V13.3H113.343L110.755 10.675ZM96.35 5.27V13.3H94.472V2.389H96.535L104.097 10.674V2.389H105.975V12.831L104.199 13.808L96.35 5.27ZM87.577 10.18H80.87V13.3H78.941V6.531L83.167 2.184H85.313L89.505 6.531V13.3H87.577V10.18ZM87.577 7.18L84.223 3.821L80.87 7.162V8.44H87.577V7.18ZM69.714 29.96L68.257 28.46L69.557 27.143L70.63 28.243H74.986L76.2 27.017V24.542L75.591 25.159H69.954L68.128 23.322V20.738L69.985 18.853H75.975L78.009 20.934V27.667L75.768 29.96H69.714ZM76.2 21.649L75.159 20.56H70.8L70 21.373V22.658L70.8 23.458H75.124L76.2 22.364V21.649ZM67.432 8.749L62.832 13.757L60.832 12.176V2.389H62.732V10.695L62.983 10.895L67.444 5.968L71.938 10.878L72.173 10.691V2.391H74.068V12.176L72.049 13.756L67.432 8.749ZM58.158 23.6L57.058 22.38L60.869 18.886L62.279 20.252V28.135H64.473V29.96H57.437V28.139H60.416V21.556L58.158 23.6ZM54.985 13.824L50.072 8.764H47.422V13.3H45.477V2.389H47.422V6.889H50.138L54.969 1.86L56.344 3.241L51.866 7.827L56.377 12.4L54.985 13.824ZM9.6 16.3V29.993H0L0 21.655L8.024 15L0 8.338L0 0L9.6 0V13.691L26.1 0L35.016 0V29.993H26.1L9.6 16.3ZM8.338 1.279H1.259V7.73L8.338 13.605V1.279ZM8.338 16.388L1.259 22.262V28.713H8.338V16.388ZM33.753 28.714V1.279H26.545L10.015 15L26.545 28.717H33.754L33.753 28.714ZM46.844 23.6L45.739 22.38L49.55 18.89L50.96 20.256V28.139H53.153V29.96H46.123V28.139H49.1V21.556L46.844 23.6Z" fill="#1E1F24"/>
</g>
<defs>
<clipPath id="clip0_190_4988">
<rect width="150" height="30" fill="white"/>
</clipPath>
</defs>
</svg>
