<svg width="10" height="10" viewBox="0 0 10 10" fill="none" xmlns="http://www.w3.org/2000/svg">
<path d="M3.17436 0C2.62207 0 2.17436 0.447715 2.17436 1C2.17436 1.55228 2.62207 2 3.17436 2V0ZM9 1H10C10 0.447715 9.55228 0 9 0V1ZM8 6.82564C8 7.37793 8.44772 7.82564 9 7.82564C9.55228 7.82564 10 7.37793 10 6.82564L8 6.82564ZM0.292893 8.29289C-0.0976311 8.68342 -0.0976311 9.31658 0.292893 9.70711C0.683418 10.0976 1.31658 10.0976 1.70711 9.70711L0.292893 8.29289ZM3.17436 2L9 2V0L3.17436 0V2ZM8 1V6.82564L10 6.82564V1H8ZM8.29289 0.292893L0.292893 8.29289L1.70711 9.70711L9.70711 1.70711L8.29289 0.292893Z" fill="#1E1F24"/>
</svg>
